<svg width="678" height="134" viewBox="0 0 678 134" fill="none" xmlns="http://www.w3.org/2000/svg">
<path d="M19.1074 112V109.6L29.9074 104.65V35.35L19.1074 30.4V28H53.3074V30.4L42.6574 35.35V104.65L53.3074 109.6V112H19.1074ZM84.8074 112L42.6574 69.1L77.4574 34.6L68.1574 30.4V28H98.0074V30.4L89.3074 33.7L55.8574 65.8L95.3074 105.55L105.957 109.6V112H84.8074ZM125.414 112V109.6L136.064 104.65V35.35L125.414 30.4V28H156.014C166.414 28 174.314 29.6 179.714 32.8C185.214 36 187.964 40.85 187.964 47.35C187.964 52.15 186.514 56.3 183.614 59.8C180.714 63.3 176.714 65.75 171.614 67.15C179.114 68.25 185.014 70.6 189.314 74.2C193.614 77.8 195.764 82.35 195.764 87.85C195.764 92.45 194.264 96.6 191.264 100.3C188.364 103.9 184.214 106.75 178.814 108.85C173.514 110.95 167.364 112 160.364 112H125.414ZM154.064 35.5H148.814V64.75H154.364C160.364 64.75 165.264 63.6 169.064 61.3C172.964 58.9 174.914 55.05 174.914 49.75C174.914 45.05 173.114 41.5 169.514 39.1C166.014 36.7 160.864 35.5 154.064 35.5ZM159.014 72.25H148.814V104.5H160.064C166.664 104.5 172.014 103.25 176.114 100.75C180.314 98.15 182.414 94.05 182.414 88.45C182.414 82.35 180.314 78.15 176.114 75.85C171.914 73.45 166.214 72.25 159.014 72.25ZM205.575 112V109.6L213.225 105.7L246.525 27.25H252.825L285.975 105.55L294.675 109.6V112H261.975V109.6L272.475 105.4L263.025 82.6H231.825L222.375 105.7L233.475 109.6V112H205.575ZM234.975 75.1H259.875L247.275 44.8L234.975 75.1ZM309.398 112V109.6L320.198 104.65V35.35L309.398 30.4V28H342.698C365.598 28 377.048 35.95 377.048 51.85C377.048 56.95 375.498 61.35 372.398 65.05C369.298 68.75 364.998 71.6 359.498 73.6C354.098 75.5 347.848 76.45 340.748 76.45H332.948V104.65L345.248 109.6V112H309.398ZM332.948 35.5V68.95H341.198C348.098 68.95 353.548 67.5 357.548 64.6C361.648 61.6 363.698 57.4 363.698 52C363.698 46.1 361.598 41.9 357.398 39.4C353.298 36.8 347.598 35.5 340.298 35.5H332.948ZM411.152 112V109.6L424.502 104.65V35.5H401.402L394.052 53.05H391.652V28H470.252V53.05H467.852L460.352 35.5H437.252V104.65L450.752 109.6V112H411.152ZM477.45 112V109.6L485.1 105.7L518.4 27.25H524.7L557.85 105.55L566.55 109.6V112H533.85V109.6L544.35 105.4L534.9 82.6H503.7L494.25 105.7L505.35 109.6V112H477.45ZM506.85 75.1H531.75L519.15 44.8L506.85 75.1ZM624.209 112V109.6L635.309 104.65V35.5H604.109V41.5C604.109 55.8 603.459 67.6 602.159 76.9C600.959 86.2 599.009 94 596.309 100.3C593.909 105.6 591.259 109.1 588.359 110.8C585.459 112.4 582.759 113.2 580.259 113.2C578.659 113.2 577.459 112.95 576.659 112.45C575.959 111.95 575.609 111 575.609 109.6V101.65L576.209 101.05H577.559C582.359 101.05 586.059 98.7 588.659 94C591.259 89.3 593.059 82.5 594.059 73.6C595.059 64.7 595.559 54 595.559 41.5V35.35L585.059 30.55V28H658.559V30.4L648.059 35.35V104.65L658.559 109.6V112H624.209Z" fill="#E7E9C3"/>
<rect x="8" y="5" width="109" height="124" stroke="#E7E9C3" stroke-width="10"/>
</svg>
